<?xml version="1.0" encoding="utf-8"?>
<!-- Generator: Adobe Illustrator 16.0.0, SVG Export Plug-In . SVG Version: 6.00 Build 0)  -->
<!DOCTYPE svg PUBLIC "-//W3C//DTD SVG 1.1//EN" "http://www.w3.org/Graphics/SVG/1.1/DTD/svg11.dtd">
<svg version="1.1" id="Layer_1" xmlns="http://www.w3.org/2000/svg" xmlns:xlink="http://www.w3.org/1999/xlink" x="0px" y="0px"
	 width="200px" height="50px" viewBox="0 0 200 50" enable-background="new 0 0 200 50" xml:space="preserve">
<path fill="#FFFFFF" d="M49.8,25c0,9.494-5.313,17.744-13.125,21.945c-3.508,1.887-7.516,2.953-11.774,2.953
	c-0.367,0-0.731-0.006-1.095-0.023C14.535,49.473,6.578,44.002,2.64,36.166c-1.449-2.881-2.354-6.084-2.582-9.473
	C0.019,26.133,0,25.568,0,24.998c0-8.737,4.5-16.239,11.312-20.68c3.908-2.551,8.576-3.846,13.588-3.846c0.043,0,0.088,0,0.13,0
	c9.494,0,17.728,5.223,21.887,13.073c1.8,3.394,2.837,7.161,2.882,11.257C49.8,24.898,49.8,24.902,49.8,25z"/>
<path fill="#FF4444" d="M21.731,14.806c0,6.622-8.579,11.989-19.163,11.989c-0.851,0-1.688-0.031-2.511-0.102
	C0.019,26.133,0,25.568,0,24.998C0,16.261,4.5,8.574,11.312,4.132C17.499,6.121,21.731,10.154,21.731,14.806z"/>
<path fill="#FF4444" d="M49.8,25c0,9.494-5.313,17.744-13.125,21.945c-5.881-2.047-9.856-5.975-9.856-10.482
	c0-6.621,8.579-11.99,19.163-11.99c1.307,0,2.584,0.082,3.816,0.238C49.8,24.805,49.8,24.902,49.8,25z"/>
<path fill="#FF4444" d="M46.916,13.36c-2.143,5.201-5.829,8.633-10.018,8.633c-6.623,0-11.99-8.58-11.99-19.164
	c0-0.927,0.041-1.838,0.121-2.729C34.523,0.149,42.757,5.509,46.916,13.36z"/>
<path fill="#FF4444" d="M23.839,48.438c0,0.482-0.011,0.963-0.033,1.438C14.535,49.473,6.578,44.002,2.64,36.166
	c2.199-4.211,5.509-6.893,9.209-6.893C18.472,29.273,23.839,37.854,23.839,48.438z"/>
<ellipse transform="matrix(-0.656 -0.7548 0.7548 -0.656 20.3644 60.0702)" fill="#FF4444" cx="23.872" cy="25.394" rx="4.901" ry="6.594"/>
<text transform="matrix(1 0 0 1 49.7998 40.8242)" fill="#383838" font-family="'OpenSans'" font-size="45">SCIKIC</text>
</svg>
